<?xml version="1.0" encoding="iso-8859-1"?>
<!-- Uploaded to: SVG Repo, www.svgrepo.com, Generator: SVG Repo Mixer Tools -->
<svg version="1.1" id="Layer_1" xmlns="http://www.w3.org/2000/svg" xmlns:xlink="http://www.w3.org/1999/xlink" 
	 viewBox="0 0 512 512" xml:space="preserve">
<path style="fill:#7CD8A4;" d="M372.904,443.799c0,0-6.657,28.655,7.369,47.029c14.026,18.373,43.423,19.505,43.423,19.505
	s6.657-28.655-7.369-47.029C402.3,444.931,372.904,443.799,372.904,443.799z"/>
<path style="fill:#C6C3CB;" d="M399.028,116.434v259.889H297.284c-55.959,0-101.743-45.785-101.743-101.743V109.845L399.028,116.434
	z"/>
<g>
	<rect x="283.368" y="376.32" style="fill:#77757E;" width="24.995" height="67.472"/>
	<rect x="347.039" y="376.32" style="fill:#77757E;" width="24.995" height="67.472"/>
</g>
<path style="fill:#7CD8A4;" d="M512,451.631H169.204c-4.327,0-7.832-3.506-7.832-7.832c0-4.327,3.506-7.832,7.832-7.832H512
	L512,451.631L512,451.631z"/>
<path style="fill:#C6C3CB;" d="M58.409,70.118c0-27.356,16.053-50.954,39.248-61.915c-8.859-4.186-18.755-6.536-29.205-6.536
	C30.647,1.666,0,32.313,0,70.118s30.647,68.451,68.451,68.451c10.448,0,20.345-2.35,29.205-6.536
	C74.461,121.072,58.409,97.474,58.409,70.118z"/>
<path style="fill:#DFDFE2;" d="M195.54,251.896v23.012c0,55.958,45.785,101.743,101.743,101.743h56.855
	c-9.486-20.1-27.594-55.717-43.832-71.955C246.867,241.257,201.496,250.341,195.54,251.896z"/>
<g>
	<rect x="283.368" y="376.32" style="fill:#3E3B43;" width="24.995" height="16.803"/>
	<rect x="347.039" y="376.32" style="fill:#3E3B43;" width="24.995" height="16.803"/>
</g>
<path style="fill:#77757E;" d="M380.508,88.181l65.482,211.756l0,0c-60.773,18.793-125.872-15.555-144.666-76.327l-4.665-15.085
	C296.66,208.526,390.049,188.893,380.508,88.181z"/>
<g>
	<path style="fill:#3E3B43;" d="M428.843,244.408l-7.513,2.324c-23.542,7.28-47.662,1.92-67.915-15.091
		c-3.309-2.781-8.252-2.352-11.034,0.96c-2.783,3.311-2.352,8.252,0.96,11.034c24.47,20.556,53.811,26.97,82.618,18.062l7.513-2.324
		L428.843,244.408z"/>
	<path style="fill:#3E3B43;" d="M415.424,201.013l-7.513,2.324c-23.543,7.28-47.662,1.92-67.915-15.091
		c-3.309-2.781-8.252-2.352-11.034,0.96c-2.783,3.311-2.352,8.252,0.96,11.034c24.47,20.556,53.811,26.97,82.618,18.062l7.513-2.324
		L415.424,201.013z"/>
	<path style="opacity:0.29;fill:#3E3B43;enable-background:new    ;" d="M399.028,132.755c0,56.191-101.743,101.743-101.743,101.743
		s-101.743-45.552-101.743-101.743S241.093,31.012,297.284,31.012S399.028,76.563,399.028,132.755z"/>
</g>
<path style="fill:#DFDFE2;" d="M399.028,112.048c0,56.191-101.743,101.743-101.743,101.743s-101.743-45.552-101.743-101.743
	S241.093,10.305,297.284,10.305S399.028,55.856,399.028,112.048z"/>
<path style="fill:#C6C3CB;" d="M296.127,159.585c0-34.38,27.87-126.504,62.25-126.504h1.901
	c-17.504-14.238-39.829-22.777-64.151-22.777s-46.647,8.539-64.151,22.777h1.901C268.257,33.081,296.127,125.205,296.127,159.585z"
	/>
<g>
	<circle style="fill:#3E3B43;" cx="246.776" cy="95.187" r="13.433"/>
	<circle style="fill:#3E3B43;" cx="346.099" cy="95.187" r="13.433"/>
	<g style="opacity:0.14;">
		<path style="fill:#3E3B43;" d="M360.349,292.858l-0.856,83.465h39.535v-71.986C383.403,302.269,372.032,298.614,360.349,292.858z"
			/>
		<path style="fill:#3E3B43;" d="M433.448,259.38l0.022-0.006l-4.627-14.966l-0.022,0.007l-8.792-28.43l0.022-0.007l-4.627-14.966
			l-0.022,0.007l-16.374-52.952v-31.635l-0.22-0.007c0.135-1.453,0.22-2.911,0.22-4.379c0-42.29-25.802-78.548-62.521-93.904
			c14.44,19.429,22.987,43.499,22.987,69.565c0,1.684-0.098,3.358-0.253,5.025l0.253,0.008v82.521l18.788,14.533l0.026-0.008
			l5.309,17.171l-0.025,0.008l10.087,32.621l0.025-0.008l5.309,17.171l-0.026,0.007l14.39,46.536c-1.981,0.612,1.988-0.515,0,0
			c12.732,0.518,19.79,0.609,32.612-3.356L433.448,259.38z"/>
	</g>
</g>
</svg>